<?xml version="1.0" standalone="no"?>
<!DOCTYPE svg PUBLIC "-//W3C//DTD SVG 1.1//EN" "http://www.w3.org/Graphics/SVG/1.1/DTD/svg11.dtd" >
<!--
2013-9-30: Created.
-->
<svg>
<metadata>
Created by iconfont
</metadata>
<defs>

<font id="iconfont" horiz-adv-x="1024" >
  <font-face
    font-family="iconfont"
    font-weight="500"
    font-stretch="normal"
    units-per-em="1024"
    ascent="896"
    descent="-128"
  />
    <missing-glyph />
    
    <glyph glyph-name="x" unicode="x" horiz-adv-x="1001"
d="M281 543q-27 -1 -53 -1h-83q-18 0 -36.5 -6t-32.5 -18.5t-23 -32t-9 -45.5v-76h912v41q0 16 -0.5 30t-0.5 18q0 13 -5 29t-17 29.5t-31.5 22.5t-49.5 9h-133v-97h-438v97zM955 310v-52q0 -23 0.5 -52t0.5 -58t-10.5 -47.5t-26 -30t-33 -16t-31.5 -4.5q-14 -1 -29.5 -0.5
t-29.5 0.5h-32l-45 128h-439l-44 -128h-29h-34q-20 0 -45 1q-25 0 -41 9.5t-25.5 23t-13.5 29.5t-4 30v167h911zM163 247q-12 0 -21 -8.5t-9 -21.5t9 -21.5t21 -8.5q13 0 22 8.5t9 21.5t-9 21.5t-22 8.5zM316 123q-8 -26 -14 -48q-5 -19 -10.5 -37t-7.5 -25t-3 -15t1 -14.5
t9.5 -10.5t21.5 -4h37h67h81h80h64h36q23 0 34 12t2 38q-5 13 -9.5 30.5t-9.5 34.5q-5 19 -11 39h-368zM336 498v228q0 11 2.5 23t10 21.5t20.5 15.5t34 6h188q31 0 51.5 -14.5t20.5 -52.5v-227h-327z" />
    

    
    <glyph glyph-name="search" unicode="&#58947;" d="M1001.526404-179.699618C999.922771-174.822379 999.922771-174.822379 998.661741-172.531443 997.556333-170.547938 996.293839-168.724943 994.702325-166.653549 992.500075-163.787264 989.423708-160.169135 985.358477-155.619563 978.223881-147.634933 967.82403-136.546074 954.04227-122.18551 932.495573-99.733901 910.909628-77.684252 858.479859-24.391998 806.561909 28.380015 784.782022 50.629598 763.425645 72.886537 750.035742 86.841067 739.986204 97.558483 733.331893 105.006633 730.0273 108.705455 727.65239 111.498419 726.365602 113.171678 727.222236 111.561131 727.222236 111.561131 728.57702 107.58121 730.685899 100.086517 730.685899 100.086517 721.610157 82.825982 803.853596 162.08394 851.33145 272.012949 851.33145 389.600226 851.33145 622.88518 665.530044 812 436.332393 812 207.134741 812 21.333333 622.88518 21.333333 389.600226 21.333333 156.315273 207.134741-32.799548 436.332393-32.799548 441.356706-32.799548 446.556279-32.56416 452.347883-32.11767 456.487002-31.798575 460.079727-31.454155 466.651669-30.776804 479.958906-29.405269 484.804847-29.014569 490.397372-29.014558 499.896397-29.014541 514.964663-25.646929 537.39015-19.429666 540.021178-18.700239 542.719546-17.938705 545.476431-17.148403 553.976567-14.711712 562.667765-12.108471 571.097184-9.505798 576.160226-7.942528 580.026436-6.721914 582.233225-6.013231 595.480279-1.759108 602.830912 12.619906 598.651326 26.103196 594.471738 39.586485 580.344653 47.068205 567.097598 42.81408 565.058735 42.159326 561.367413 40.993926 556.494825 39.489461 548.364858 36.979245 539.986116 34.469596 531.839533 32.134255 529.217662 31.382658 526.657771 30.660205 524.170112 29.970524 506.936476 25.192655 493.480702 22.185421 490.397278 22.185414 482.458716 22.185399 476.720548 21.722765 461.583853 20.162671 455.416051 19.526976 452.140828 19.212992 448.548723 18.936068 443.933724 18.580286 439.960704 18.400425 436.332393 18.400425 234.916275 18.400425 71.63625 184.592237 71.63625 389.600226 71.63625 594.608215 234.916275 760.800027 436.332393 760.800027 637.74851 760.800027 801.028533 594.608215 801.028533 389.600226 801.028533 286.224557 759.336083 189.690923 687.025254 120.005013 677.769918 102.436971 677.769918 102.436971 679.976768 94.37293 681.566101 89.694818 681.566101 89.694818 682.808947 87.449702 683.910231 85.488343 685.170219 83.673308 686.754421 81.613308 688.964348 78.739657 692.047349 75.113956 696.115554 70.560425 703.261474 62.562018 713.66454 51.467582 727.438434 37.112866 749.001325 14.640706 770.84669-7.675765 822.916311-60.601946 875.194278-113.7399 896.716879-135.724843 918.057933-157.962174 931.455439-171.922347 941.502012-182.634524 948.144469-190.068378 951.440527-193.757135 953.805218-196.538259 955.077419-198.194061 954.139053-196.441707 954.139053-196.441707 952.75811-192.249822 950.686453-184.172693 950.686453-184.172693 960.850534-166.849743 950.24269-175.977788 948.913429-192.130236 957.881542-202.927251 966.849655-213.724265 982.719104-215.077231 993.326948-205.949188 1003.683753-188.332838 1003.683753-188.332838 1001.526404-179.699618Z"  horiz-adv-x="1024" />

    
    <glyph glyph-name="github" unicode="&#59119;" d="M298.285714 123.42857100000003q-4.571429-5.142857-11.428571 1.714286-7.428571 6.285714-2.285714 10.857143 4.571429 5.142857 11.428571-1.714286 6.857143-6.285714 2.285714-10.857143z m-24 34.857143q5.142857-6.857143 0-10.857143-4.571429-3.428571-9.714286 4t0 10.285714q5.142857 4 9.714286-3.428571z m-34.857143 34.285714q-2.857143-4-7.428571-1.142857-5.714286 2.857143-4 6.857143 1.714286 2.857143 7.428571 1.142857 5.714286-2.857143 4-6.857143z m17.714286-19.428571q-3.428571-4-9.142857 1.714286-5.142857 6.285714-1.142857 9.142857 3.428571 3.428571 9.142857-1.714286 5.142857-6.285714 1.142857-9.142857z m73.714286-64q-2.285714-6.857143-10.857143-3.428571-9.714286 2.285714-7.428571 8.571429t10.857143 4q9.142857-2.857143 7.428571-9.142857z m36-2.857143q0-6.285714-9.142857-6.285714-9.714286-1.142857-9.714286 6.285714 0 6.285714 9.142857 6.285714 9.714286 1.142857 9.714286-6.285714z m33.142857 5.714286q1.142857-5.714286-8-8t-10.285714 4.571429 8 8.571429q9.142857 1.142857 10.285714-5.142857z m550.857143 546.285714l0-548.571429q0-68-48.285714-116.285714t-116.285714-48.285714l-128 0q-9.142857 0-14 0.571429t-11.142857 2.857143-9.142857 8.285714-2.857143 15.714286l0 136.571429q0 55.428571-29.714286 81.142857 32.571429 3.428571 58.571429 10.285714t53.714286 22.285714 46.285714 38 30.285714 60 11.714286 86q0 69.142857-45.142857 117.714286 21.142857 52-4.571429 116.571429-16 5.142857-46.285714-6.285714t-52.571429-25.142857l-21.714286-13.714286q-53.142857 14.857143-109.714286 14.857143t-109.714286-14.857143q-9.142857 6.285714-24.285714 15.428571t-47.714286 22-49.142857 7.714286q-25.142857-64.571429-4-116.571429-45.142857-48.571429-45.142857-117.714286 0-48.571429 11.714286-85.714286t30-60 46-38.285714 53.714286-22.285714 58.571429-10.285714q-22.857143-20.571429-28-58.857143-12-5.714286-25.714286-8.571429t-32.571429-2.857143-37.428571 12.285714-31.714286 35.714286q-10.857143 18.285714-27.714286 29.714286t-28.285714 13.714286l-11.428571 1.714286q-12 0-16.571429-2.571429t-2.857143-6.571429 5.142857-8 7.428571-6.857143l4-2.857143q12.571429-5.714286 24.857143-21.714286t18-29.142857l5.714286-13.142857q7.428571-21.714286 25.142857-35.142857t38.285714-17.142857 39.714286-4 31.714286 2l13.142857 2.285714q0-21.714286 2.857143-58.857143t2.857143-38.857143q0-12.571429-6.285714-19.142857t-12.571429-7.428571-18.857143-0.857143l-128 0q-68 0-116.285714 48.285714t-48.285714 116.285714l0 548.571429q0 68 48.285714 116.285714t116.285714 48.285714l548.571429 0q68 0 116.285714-48.285714t48.285714-116.285714z"  horiz-adv-x="1024" />

    
    <glyph glyph-name="html5" unicode="&#59144;" d="M755.428571 470.857143l9.142857 100-505.142857 0 26.857143-305.142857 349.714286 0-12.571429-130.285714-112.571429-30.285714-112 30.285714-7.428571 80-100 0 12.571429-158.857143 206.857143-57.142857 2.285714 0 0 0.571429 205.142857 56.571429 28.571429 310.857143-368 0-8.571429 103.428571 385.142857 0zm-645.714286 268l804.571429 0-73.142857-821.714286-330.285714-92.571429-328 92.571429z"  horiz-adv-x="1024" />

    
    <glyph glyph-name="jianli" unicode="&#58906;" d="M1017.771 288.669c0-280.666-227.523-508.191-508.191-508.191s-508.19 227.525-508.19 508.191c0 280.665 227.523 508.19 508.191 508.19s508.19-227.523 508.19-508.19zM347.724 392.761v29.447h-73.223c4.88 7.642 9.443 15.387 13.69 23.241h-45.207c-15.281-24.832-33.006-46.589-53.166-65.264 5.731-9.977 11.779-22.711 18.146-38.205 16.555 15.81 31.518 32.366 44.89 49.664h15.281c6.26-10.188 12.417-21.543 18.465-34.065l39.476 14.326c-3.82 6.473-8.014 13.053-12.576 19.739h33.11c-3.715-4.352-7.589-8.384-11.62-12.098 13.583-6.156 25.998-12.204 37.249-18.146 8.277 9.87 15.81 19.95 22.603 30.244h18.943c4.14-9.445 7.904-19.526 11.301-30.244l41.068 8.277c-2.973 7.107-6.262 14.432-9.87 21.967h46.799v30.563h-90.892c3.713 7.642 7.056 15.387 10.029 23.241h-41.706c-9.447-20.69-20.375-38.256-32.79-52.687zM210.829 130.908h42.661v196.112h-42.661v-196.112zM268.77 310.783l34.702 18.465c-9.764 14.007-20.908 28.864-33.428 44.571l-31.2-16.874c10.825-14.433 20.798-29.821 29.925-46.162zM280.548 152.876h39.476v14.644h78.795c3.077-11.037 5.783-22.923 8.119-35.657 21.86 0.318 38.496 1.194 49.903 2.627 11.406 1.433 20.269 6.634 26.583 15.599 6.313 8.97 9.472 21.676 9.472 38.124v167.777h-178.283v-35.020h135.622v-126.707c0-6.048-1.194-10.799-3.582-14.246-2.388-3.45-4.989-5.411-7.799-5.89-2.813-0.478-8.464-0.716-16.953-0.716v127.185h-141.353v-147.719zM382.426 249.021h-62.399v20.375h62.399v-20.375zM320.028 198.72v20.375h62.399v-20.375h-62.399zM591.588 386.235h237.18v42.023h-281.75v-130.847c0-51.152-10.506-92.325-31.518-123.525 10.825-13.794 21.33-28.334 31.518-43.616 29.713 40.113 44.571 95.721 44.571 166.821v89.141zM662.583 333.706h-58.897v-41.387h56.509c-5.518-53.804-33.906-95.404-85.163-124.798 12.735-13.157 23.771-25.573 33.11-37.249 60.063 37.78 92.642 91.792 97.737 162.047h61.443c-0.426-57.518-2.813-90.097-7.163-97.737-4.352-7.642-12.471-11.461-24.355-11.461-14.433 0-29.609 1.059-45.526 3.184 4.244-17.615 7.427-33.321 9.551-47.118 9.019-0.318 17.615-0.478 25.787-0.478 21.648 0 37.301 1.009 46.958 3.025 9.655 2.016 17.801 7.323 24.434 15.919 6.631 8.596 10.531 20.667 11.7 36.214 1.166 15.546 2.229 35.418 3.184 59.613s1.591 50.939 1.91 80.227h-105.696c0.741 15.81 1.166 31.412 1.274 46.799h-45.843c0-16.874-0.318-32.474-0.955-46.799z"  horiz-adv-x="1024" />

    
    <glyph glyph-name="right" unicode="&#59002;" d="M812.502052 363.527872 498.854609 182.443607 185.207166 1.358319 185.207166 363.527872 185.207166 725.696402 498.854609 544.612137Z"  horiz-adv-x="1024" />

    
    <glyph glyph-name="dianhua" unicode="&#58890;" d="M749.486 779.889h-474.931c-28.14 0-50.913-22.815-50.913-50.913v-882.033c0-28.099 22.815-50.872 50.913-50.872h474.931c28.14 0 50.872 22.815 50.872 50.872l-0 882.033c0 28.14-22.774 50.913-50.872 50.913zM512-135.117c-18.719 0-33.915 15.196-33.915 33.915s15.196 33.915 33.915 33.915c18.76 0 33.915-15.196 33.915-33.915s-15.155-33.915-33.915-33.915zM733.553-10.476h-443.105v664.699h443.105v-664.699z"  horiz-adv-x="1024" />

    
    <glyph glyph-name="nodejs" unicode="&#59066;" d="M936.547 541.415c-0.011 3.118-2.233 6.938-4.939 8.487L515.201 788.377c-2.706 1.549-7.125 1.534-9.819-0.035L90.654 546.961c-2.695-1.568-4.891-5.403-4.88-8.521l1.678-479.857c0.011-3.118 2.234-6.937 4.939-8.486l416.406-238.473c2.706-1.55 7.125-1.534 9.819 0.034l414.73 241.381c2.694 1.568 4.891 5.402 4.88 8.521L936.547 541.415zM814.381 150.738c0-3.118-0.667-8.132-1.482-11.141l-7.363-13.08c-2.15-2.258-6.091-5.429-8.756-7.046L537.571-37.775c-2.665-1.617-7.191-3.945-10.058-5.173 0 0-3.76-1.61-8.534-1.61-3.945 0-6.206 0.788-6.206 0.788-2.944 1.026-7.649 2.979-10.455 4.34l-111.779 54.191c-2.806 1.36-3.989 4.77-2.628 7.575l18.175 37.488c1.36 2.806 4.769 3.988 7.575 2.628l98.803-47.9c2.806-1.36 7.283-1.15 9.948 0.467l234.122 142.028c2.665 1.617 4.847 5.491 4.847 8.609L761.381 434.439c0 3.118-2.196 6.967-4.882 8.553l-232.783 137.49c-2.686 1.586-7.091 1.607-9.791 0.047L275.533 442.777c-2.7-1.56-4.909-5.388-4.909-8.506l0-274.058c0-3.118 1.895-7.377 4.211-9.465 0 0 47.7-42.992 70.326-42.073 20.602 0.809 39.447 19.069 39.447 19.069 2.239 2.17 4.071 6.496 4.071 9.614l0 298.15c0 3.118 2.551 5.669 5.669 5.669l41.661 0c3.118 0 5.669-2.551 5.669-5.669l0-307.43c0-3.118-0.381-8.191-0.847-11.274 0 0-0.729-4.828-3.678-9.204-1.367-2.028-34.115-49.695-89.916-51.885-42.427-1.689-84.12 22.849-123.863 72.864-3.725 4.688-4.792 10.899-4.792 10.899-0.528 3.072-0.96 8.138-0.96 11.256L217.622 449.565c0 3.118 0.682 8.128 1.514 11.133l7.755 13.437c2.185 2.225 6.182 5.321 8.881 6.881l265.039 153.149c2.7 1.56 7.38 3.469 10.401 4.242l15.764-0.075c3.014-0.802 7.675-2.756 10.36-4.342l259.137-153.055c2.686-1.586 6.657-4.716 8.826-6.955l7.579-13.278c0.825-3.007 1.5-8.019 1.5-11.137L814.378 150.738zM648.051 243.002c-6.746 4.373-23.514 9.932-50.309 16.678-36.092 9.111-61.109 16.994-75.053 23.65-13.947 6.652-24.52 15.859-31.719 27.617-7.203 11.757-10.799 24.745-10.799 38.962 0 12.941 2.961 24.924 8.886 35.955 5.921 11.027 13.987 20.186 24.197 27.479 7.658 5.647 18.09 10.433 31.309 14.354 13.211 3.918 27.385 5.878 42.516 5.878 22.783 0 42.789-3.281 60.016-9.843 17.225-6.563 29.939-15.449 38.141-26.659 8.203-11.209 15.531-39.489 15.531-39.489 0.782-3.018-1.105-5.833-4.195-6.254l-36.887-5.03c-3.09-0.421-6.396 1.664-7.347 4.633 0 0-6.794 21.212-17.274 29.599-10.484 8.381-25.291 12.577-44.432 12.577-22.604 0-38.736-3.738-48.395-11.21-9.664-7.476-14.49-16.226-14.49-26.249 0-6.383 2.004-12.124 6.014-17.225 4.008-5.29 10.297-9.664 18.867-13.125 4.922-1.824 19.412-6.015 43.473-12.577 34.814-9.296 59.102-16.91 72.865-22.832 13.762-5.926 24.561-14.539 32.402-25.838 7.834-11.305 11.756-25.338 11.756-42.107 0-16.404-4.787-31.854-14.355-46.346-9.568-14.49-23.377-25.699-41.422-33.629s-38.463-11.895-61.248-11.895c-37.73 0-66.486 7.836-86.263 23.514-19.778 15.676-36.066 64.347-36.066 64.347-0.99 2.957 0.721 5.772 3.801 6.257l37.469 5.895c3.08 0.484 6.334-1.563 7.23-4.549 0 0 8.712-29.021 21.2-39.41 12.482-10.391 29.938-15.586 52.359-15.586 22.6 0 39.373 4.602 50.309 13.807 10.938 9.203 16.406 20.004 16.406 32.4C662.543 227.869 657.709 236.619 648.051 243.002z"  horiz-adv-x="1024" />

    
    <glyph glyph-name="socketio" unicode="&#58886;" d="M955.68766 309.077749c-2.130524 150.412708-85.791945 296.55209-213.956953 373.790218-101.767801 63.284325-229.285057 80.675414-344.673064 50.857295C223.118102 690.160047 85.163123 531.365438 67.499835 351.342342c-21.934568-170.381505 63.442938-347.827917 209.692836-435.796434 143.495158-90.566692 337.863984-86.919628 478.376205 8.339946C881.816209 6.533179 960.374402 157.155664 955.68766 309.077749zM534.792611-83.616004c-202.676026-20.366863-398.528646 152.803151-404.27758 357.909529-15.116279 166.086689 93.454462 330.895269 248.870114 385.818159 217.996966 87.988983 485.391992-74.451666 507.96408-310.046429C922.476257 138.044398 747.906359-77.369743 534.792611-83.616004zM403.84114 322.818705c95.52768 78.830393 188.960653 160.38892 286.558481 236.898455-51.192939-79.444377-103.838973-157.863401-155.030889-237.308801C491.453546 322.183232 447.545524 322.183232 403.84114 322.818705L403.84114 322.818705zM484.584092 278.88817c44.116777 0 88.024799 0 131.942031-0.656963-96.145757-78.379115-189.1735-160.574139-286.97292-236.899478C380.744096 120.819085 433.390129 199.401838 484.584092 278.88817L484.584092 278.88817z"  horiz-adv-x="1024" />

    
    <glyph glyph-name="left" unicode="&#58993;" d="M214.592 415.872l423.36 313.216c0 0 67.072 31.68 67.072-35.712l0-618.176c0 0 1.92-70.848-67.072-30.016L214.592 352.12800000000004C214.592 352.12800000000004 166.016 382.784 214.592 415.872z"  horiz-adv-x="1024" />

    
    <glyph glyph-name="hexo" unicode="&#58881;" d="M512.8 748.4l-400-231-0.8-460.4 399.2-229.4 400 231 0.8 460.4-399.2 229.4zM698 90.8l-36.8-21.4-37.2 22v158.6h-224v-159.2l-36.8-21.4-37.2 22v394l37 21.2 37-21.6v-159h224v159.2l37 21.2 37-21.6v-394z"  horiz-adv-x="1024" />

    
    <glyph glyph-name="night" unicode="&#59102;" d="M399.817387 616.966827C312.60672 573.99296 255.996587 484.90496 255.996587 385.867093 255.996587 243.70176000000004 371.674453 128.00682700000004 513.856853 128.00682700000004 612.246187 128.00682700000004 701.078187 184.10496 744.290987 270.56469300000003 724.81792 266.502827 705.10592 264.43776 685.325653 264.43776 524.31872 264.43776 393.332053 395.441493 393.332053 556.3972269999999 393.332053 576.7065600000001 395.49952 596.93056 399.817387 616.966827M513.856853 93.87349300000005C352.84992 93.87349300000005 221.863253 224.86015999999995 221.863253 385.867093 221.863253 510.96576 301.54752 622.001493 420.160853 662.227627 426.37312 664.292693 433.18272 662.739627 437.756587 658.097493 442.34752 653.50656 443.900587 646.662827 441.78432 640.50176 432.278187 613.0073600000001 427.465387 584.69376 427.465387 556.3972269999999 427.465387 414.231893 543.143253 298.571093 685.325653 298.571093 713.229653 298.571093 741.065387 303.19615999999996 768.047787 312.36096 774.242987 314.391893 781.069653 312.87296000000003 785.626453 308.230827 790.234453 303.63989300000003 791.78752 296.79616 789.671253 290.635093 749.03552 172.926293 638.204587 93.87349300000005 513.856853 93.87349300000005"  horiz-adv-x="1024" />

    
    <glyph glyph-name="material" unicode="&#59721;" d="M341.333333 187.30666699999995L341.333333 240.21333300000003 597.333333 387.84 597.333333 587.52 384 464.213333 170.666667 587.52 170.666667 341.33333300000004 128 316.58666700000003 85.333333 341.33333300000004 85.333333 682.666667 130.986667 709.12 384 562.773333 551.68 659.626667 637.013333 709.12 682.666667 682.666667 682.666667 338.773333 465.92 213.33333300000004 638.72 113.91999999999996 853.333333 237.65333299999998 853.333333 426.666667 896 451.413333 938.666667 426.666667 938.666667 188.58666700000003 638.72 15.360000000000014 341.333333 187.30666699999995M938.666667 480L896 455.253333 853.333333 480 853.333333 529.9200000000001 896 554.666667 938.666667 529.9200000000001 938.666667 480Z"  horiz-adv-x="1024" />

    
    <glyph glyph-name="ui" unicode="&#59270;" d="M810.88 611.84 559.36 756.48c-26.24 15.36-69.12 15.36-95.36 0L213.12 611.84c-26.24-15.36-47.36-52.48-47.36-82.56l0-289.92c0-30.08 21.12-67.2 47.36-82.56l251.52-145.28c26.24-15.36 69.12-15.36 95.36 0l251.52 145.28c26.24 15.36 47.36 52.48 47.36 82.56L858.88 529.28C858.88 559.36 837.12 596.48 810.88 611.84L810.88 611.84 810.88 611.84zM594.56 384c0-92.8-74.88-167.68-167.68-167.68-92.8 0-167.68 74.88-167.68 167.68l0 0L259.2 512c0 21.76 17.92 39.68 39.68 39.68 21.76 0 39.68-17.92 39.68-39.68l0-128c0-48.64 39.68-88.32 88.32-88.32 48.64 0 88.32 39.68 88.32 88.32L515.2 512c0 21.76 17.92 39.68 39.68 39.68 21.76 0 39.68-17.92 39.68-39.68L594.56 384 594.56 384 594.56 384zM764.8 256c0-21.76-17.92-39.68-39.68-39.68-21.76 0-39.68 17.92-39.68 39.68L685.44 512c0 21.76 17.92 39.68 39.68 39.68 21.76 0 39.68-17.92 39.68-39.68L764.8 256 764.8 256 764.8 256zM764.8 256"  horiz-adv-x="1024" />

    
    <glyph glyph-name="like" unicode="&#59006;" d="M849.053722 451.264799c0-209.965879-349.972031-437.27177-349.972031-437.27177S149.116884 241.291695 149.116884 451.264799s218.130135 272.592225 349.972031 96.367121C629.724236 723.857024 849.053722 661.230678 849.053722 451.264799L849.053722 451.264799z"  horiz-adv-x="1024" />

    
    <glyph glyph-name="shit" unicode="&#58935;" d="M743.232 268.99199999999996c34.304 76.8-10.944 112.896-87.36 131.712 12.48 39.168-9.344 67.392-54.592 76.8 13.952 57.984-53.12 111.296-98.368 120.704 54.592-56.448-10.944-109.76-10.944-109.76s-195.072-15.68-131.072-98.752c-67.136 6.272-107.712-32.896-87.424-109.696-128-25.088-145.152-175.552-21.824-208.512 121.728-1.6 366.72 1.536 535.296 0 131.072 62.72 53.056 200.64-43.712 197.504z m-43.712 318.272c-51.008-91.456 28.224-66.752 21.824-153.664 30.976 47.552-23.232 105.984-21.824 153.664zM415.488 696.96c-24.448-89.856 28.224-66.752 21.888-153.6 30.912 47.552-23.296 105.92-21.888 153.6zM311.36 515.8399999999999c28.352 49.216 20.48 64 6.464 107.968-19.328-24.64-0.256-76.736-44.352-91.52-23.36-27.84 14.72-76.608 10.944-131.712 1.6 37.952-5.056 94.016 26.944 115.264z"  horiz-adv-x="1024" />

    
    <glyph glyph-name="sass" unicode="&#58901;" d="M1369.605007 170.413314c-4.767266 39.84385-25.279633 70.765477-56.244996 94.995436-35.863839 28.035025-77.850772 39.581432-122.593097 41.41836a276.72013 276.72013 0 0 1-106.585579-16.444882c-9.796951-3.542647-19.418957-7.741341-29.30338-11.721352-1.312092 2.405501-2.711656 4.679794-3.848802 7.085295-10.146842 20.731048-22.393031 40.543632-25.060951 64.292491-1.924401 16.882246-4.286166 33.764492-0.262418 50.428056 3.848802 16.051255 8.922223 31.840091 13.645753 47.7164 2.449238 8.178705 0.743519 12.727289-7.041558 16.401146a31.665145 31.665145 0 0 1-8.616069 2.842865 132.958621 132.958621 0 0 1-56.55115-4.198694c-6.560458-1.924401-11.327725-5.598258-12.771026-12.858498-0.830991-4.154957-2.536711-8.134968-3.673856-12.246189-4.854739-17.100928-8.266177-34.508011-16.094991-50.777947-19.637638-40.849787-41.986933-80.125064-64.948537-119.137922-2.492974-4.198693-5.073421-8.35365-8.222441-13.470808-8.047495 16.83851-16.619828 31.927564-19.244011 49.684538-2.930338 20.031266-5.248367 40.018796-0.262419 59.918852 3.717593 14.826636 8.572332 29.390853 13.033444 43.998807 2.143083 6.954086 1.137146 10.584206-5.160894 14.258063a30.440526 30.440526 0 0 1-10.365524 4.023747 127.010472 127.010472 0 0 1-58.519288-4.811002c-5.948149-1.924401-9.053432-5.773203-10.89036-11.896298-5.335839-18.063128-9.884424-36.563621-17.363347-53.752022a18787.228113 18787.228113 0 0 0-92.721143-207.879054c-6.516722-14.433008-14.126853-28.384916-21.474567-42.424297-1.880665-3.586384-4.548584-6.691667-6.866613-10.05937-1.880665 2.186819-2.580447 3.717593-2.580447 5.204631 0.043736 8.878487-1.005937 18.063128 0.699782 26.63546 5.117157 25.979415 11.02157 51.871357 17.275874 77.63209 5.117157 21.255885 11.109043 42.336824 16.838509 63.505236 1.924401 7.085295 1.968137 13.68949-3.14902 19.637638-8.528596 9.971897-26.373042 12.158716-36.957248 4.461112-1.137146-0.830991-2.492974-1.399564-4.679794-2.66792 0.393627 3.367702 0.612309 5.467049 0.918464 7.566396 2.230556 16.182464 2.66792 32.277455-1.749455 48.241236-5.554521 19.85632-19.681375 31.271518-40.281214 30.659209a86.598049 86.598049 0 0 1-28.559862-5.423313c-37.394612-14.65169-66.129419-40.587369-90.57806-71.81515a27.991289 27.991289 0 0 0-8.266178-7.129031c-31.621409-17.538292-63.374027-34.857902-95.082908-52.264984l-35.295266-19.331484c-9.44706 9.053432-18.063128 18.41302-27.860079 26.373042-29.828217 24.317432-60.137534 48.022555-90.140697 72.077569-26.591724 21.299621-52.396193 43.517707-72.121305 71.727677-14.695427 20.993466-24.142486 43.95507-25.017214 69.934485-1.137146 33.06471 8.222441 63.286554 25.06095 91.452789 21.56204 35.995048 50.909156 64.861064 83.230348 91.05916 34.158119 27.685134 71.115368 51.171575 109.428444 72.602405 53.577076 30.003163 108.728662 56.55115 167.816523 74.089443 60.618635 17.975656 122.06826 28.253707 185.486024 21.080939 24.929741-2.799129 49.115964-8.528596 71.377786-20.731048 17.013455-9.315851 30.965363-21.518303 37.482085-40.631105 6.385513-18.806647 6.210567-37.831976 1.749455-56.901042-9.009696-38.619231-30.178108-70.503058-56.813569-98.975447-43.648916-46.666727-96.919837-78.419345-156.926162-99.412811a430.497272 430.497272 0 0 0-106.760524-22.786659c-29.828217-2.492974-59.044125 0.131209-87.297832 10.54047a113.583401 113.583401 0 0 0-48.110027 32.671082c-2.361765 2.755392-5.335839 5.685731-9.709478 3.14902-4.286166-2.492974-5.029685-6.604195-3.586384-10.715415 2.405501-6.866613 4.592321-13.951908 8.35365-20.075002 9.359587-15.351472 23.049077-26.504251 38.094395-36.082521 28.909753-18.369283 61.187208-24.536114 94.689281-25.979415 50.821683-2.186819 100.418748 5.379576 149.272294 19.025329 69.803276 19.462693 130.465647 53.839494 179.144247 108.072617 40.543632 45.135953 69.453385 96.132582 75.663952 157.66968 3.017811 30.046899-0.174946 59.481488-14.258062 86.860468-15.264 29.697008-39.493959 50.165638-68.491185 65.342164C737.745402 884.278648 692.172085 892.982189 645.155467 895.5189h-47.10409a561.750174 561.750174 0 0 1-165.585967-34.201856c-40.499896-14.739163-80.256273-31.358991-118.831768-50.603002-84.017602-41.986933-162.262001-92.196307-226.510756-161.780901C55.10785 614.250185 27.991289 576.199527 12.421134 531.151047c-4.548584-13.208389-7.347713-27.204034-10.627942-40.849787-0.262418-1.137146 1.005937-2.230556-1.793192-3.367702v-19.244011c2.799129-4.942212 3.105284-9.840687 4.373639-14.782899 8.266177-32.058773 25.279633-59.612698 46.360572-84.717385 30.046899-35.776366 66.391838-64.554909 104.092604-91.67147 32.671082-23.486441 65.823265-46.448045 98.625557-69.75954 5.641994-3.980011 10.846624-8.616069 16.969718-13.514544-5.248367-2.842865-9.665742-5.335839-14.214326-7.653868-43.299025-21.955667-84.936067-46.579254-123.336616-76.407471-23.13655-17.975656-45.52958-37.088457-61.318416-62.018199-25.410842-40.150005-34.420538-82.924193-15.482682-128.584982 5.554521-13.339599 13.995644-24.886005 25.891942-33.370864a37.744503 37.744503 0 0 1 12.683553-6.560459c11.546407-2.711656 23.355231-4.504848 35.076583-6.647931h33.152183a206.173336 206.173336 0 0 1 100.200066 36.651094c47.147827 32.539873 78.900445 76.145052 92.589935 132.171366 9.92816 40.674841 10.321788 81.437155-1.355828 121.937051-1.09341 3.761329-2.449238 7.435186-3.892539 11.065307s-3.105284 7.172768-5.073421 11.721352l75.182852 43.255288 1.137146-0.962201c-1.355828-4.461112-2.799129-8.922223-4.067484-13.470807-8.922223-32.627346-14.870372-65.823265-12.727289-99.67523 2.274292-36.082521 12.333662-69.847012 33.458337-100.02512 17.057192-24.404905 57.775769-25.279633 75.92637-0.830992a174.945554 174.945554 0 0 1 17.363347 27.466452c12.246189 25.323369 23.61765 51.084102 35.295265 76.669889l2.05561 4.679794c-0.830991-12.11498-1.836928-22.742922-2.274292-33.414601-0.699782-16.619828 0.262418-33.152183 5.948149-48.984755 4.854739-13.55828 13.120917-23.661386 28.647335-25.410842 10.584206-1.224619 19.069065 3.63012 26.854142 9.796951 12.202452 9.622005 22.086876 21.474567 29.43459 34.989111 20.774785 38.181867 42.118142 76.101316 60.968525 115.245384 20.381157 42.336824 38.181867 85.898267 57.119724 128.934873 1.049673 2.361765 1.968137 4.767266 3.14902 7.653868 4.461112-17.582028 7.610132-34.770429 13.339598-51.084102 6.647931-18.89412 14.914108-37.350876 23.923805-55.282795 4.24243-8.484859 3.761329-13.995644-2.143083-21.080939-24.667323-29.740744-48.897282-59.83138-73.170978-89.922015a198.650677 198.650677 0 0 1-15.176527-20.643575 40.018796 40.018796 0 0 1-5.248367-14.914109 18.981593 18.981593 0 0 1 15.132791-21.562039c9.578269-2.05561 19.812584-2.842865 29.609535-2.099347a173.720935 173.720935 0 0 1 91.802679 34.508011c35.207793 26.110624 46.535517 61.668308 38.006922 103.873922-2.318029 11.458934-6.385513 22.611713-10.365524 33.633283-1.793192 4.985948-1.880665 8.484859 1.355828 13.120917 28.166234 40.193741 52.221248 82.880456 74.570542 126.485635a26.810406 26.810406 0 0 0 3.323966 5.292103c7.26024-37.744503 18.150601-74.089442 37.700767-107.066679-9.971897-9.622005-19.85632-18.325547-28.778544-27.947552-19.681375-21.124676-36.738566-44.130016-45.617053-72.121305-3.805066-12.071243-6.77914-24.317432-5.073421-37.263403 2.66792-20.031266 19.069065-33.020973 38.75044-28.472389 42.118142 9.753215 78.506817 29.609535 105.098542 64.773592 17.888183 23.661386 19.506429 50.078165 12.027506 77.763299-2.05561 7.522659-4.504848 14.914108-7.129031 23.573913 10.40926 3.236493 20.556103 7.085295 31.0091 9.490796 54.451804 12.421134 108.291298 10.234315 160.731227-9.403323 30.615472-11.458934 55.370268-30.702945 70.021958-60.924789 17.931919-36.957248 8.003759-71.990096-26.810406-95.345327-3.236493-2.186819-6.954086-3.892539-9.665742-6.604195a9.44706 9.44706 0 0 1-2.230555-7.303977c0.218682-1.355828 3.805066-3.017811 5.816939-3.017811 11.458934 0.087473 20.731048 6.079358 29.653272 12.246189 22.349295 15.438945 37.088457 36.257466 40.587368 63.592709 0.087473 0.787255-1.049673 1.530774 1.749456 2.274292v18.194338c-2.799129 0.743519-1.618246 1.487037-1.705719 2.274292zM304.405264 96.498818c-3.63012-48.766073-25.716996-88.303768-61.843253-120.275069-20.337421-18.019392-43.605179-30.834154-70.765477-35.339002-9.840687-1.618246-19.900057-2.011874-29.478326 2.05561-13.602017 5.81694-16.663564 17.888183-16.925982 30.790418-0.393627 20.512366 6.77914 39.056595 16.619828 56.68236 12.858498 23.00534 31.708882 40.543632 51.82762 56.901041 31.708882 25.804469 66.129419 47.672664 101.337212 68.272503 0.568573 0.349891 1.268355 0.524837 2.66792 1.093409 5.423312-20.118739 8.047495-39.975059 6.516722-60.225007z m275.101884 211.902802a369.572483 369.572483 0 0 0-10.321788-46.229363c-15.7451-52.221248-35.907575-102.867986-57.732032-152.771205-4.023748-9.228378-9.884424-17.669501-15.001582-26.416778-0.787255-1.355828-1.968137-2.536711-3.105283-3.673857-6.29804-6.254304-12.333662-5.904412-15.526418 2.274292a171.884007 171.884007 0 0 0-7.960023 29.697008c-1.312092 6.735404-1.005937 13.820699-1.399564 20.731048 0.437364 49.115964 15.395209 93.814553 40.849786 135.364123 10.496733 17.144664 21.911931 33.458337 39.319014 44.348698a70.852949 70.852949 0 0 0 17.450819 7.74134c9.272114 2.624183 15.001581-1.705719 13.470807-11.02157z m187.672843-239.106836l67.441511 78.769236c2.799129-29.259644-46.885409-87.647723-67.441511-78.769236z m215.44545 52.964766c-4.767266-2.711656-9.971897-4.72353-14.870372-7.216504-4.461112-2.318029-5.948149 0-6.079358 3.848803a26.679197 26.679197 0 0 0 1.005937 7.872549 169.084878 169.084878 0 0 0 50.821683 81.830783c0.349891 0.349891 0.918464 0.4811 1.749456 0.918465a72.208777 72.208777 0 0 0-32.671082-87.254096z"  horiz-adv-x="1372" />

    
    <glyph glyph-name="book-skill" unicode="&#58927;" d="M170.604606 21.984969999999976C57.406061 21.984969999999976 0 53.83757600000001 0 116.68945499999995c0 62.836364 57.406061 94.68897 170.604606 94.688969 113.214061 0 170.620121-31.852606 170.620121-94.688969 0-62.851879-57.406061-94.704485-170.620121-94.704485z m0.310303 146.680242c-126.603636 0-126.603636-46.095515-126.603636-63.441454s0-63.45697 126.603636-63.45697 126.603636 46.11103 126.603636 63.45697c0.015515 17.345939 0.015515 63.441455-126.603636 63.441454zM978.556121 59.40751499999999h-84.929939c-25.693091 0-44.342303 18.494061-44.342303 43.985455v23.04c-6.702545-15.344485-21.736727-25.274182-40.587637-25.274182H723.781818c-20.883394 0-37.112242 12.210424-42.46497 30.487273-5.337212-18.261333-21.581576-30.487273-42.464969-30.487273h-84.914424c-18.866424 0-33.947152 9.976242-40.618667 25.351757v-23.117575c0-25.491394-18.649212-43.985455-44.357818-43.985455h-84.92994c-25.693091 0-44.357818 18.494061-44.357818 43.985455v15.468606l-34.412606 29.587394c-29.090909 25.025939-70.268121 36.165818-133.538909 36.165818s-104.448-11.155394-133.538909-36.165818L0 115.61890900000003V666.8101819999999c0 58.135273 29.789091 127.441455 171.721697 127.441454 118.054788 0 158.518303-47.941818 168.804848-97.543757 3.847758 20.712727 20.976485 34.955636 43.535516 34.955636h84.836848c18.866424 0 33.931636-9.960727 40.618667-25.336242v23.07103c0 25.475879 18.664727 43.985455 44.357818 43.985455h84.929939c20.867879 0 37.096727-12.210424 42.449455-30.440728C686.592 761.2043639999999 702.836364 773.430303 723.735273 773.430303h84.929939c25.693091 0 44.342303-18.494061 44.342303-43.985455v-23.024484c6.702545 15.344485 21.736727 25.274182 40.587637 25.274181h84.914424c25.646545 0 44.311273-18.46303 44.404363-43.907878v-584.378182c0-25.506909-18.664727-44.00097-44.357818-44.00097z m-83.052606 46.266182l81.144243-0.046545 0.03103 579.770181-81.190788 0.046546-0.03103-120.738909h0.046545v-459.031273z m-521.200485-2.885818l92.780606 2.839273 0.015516 496.314181h-0.031031v83.456l-96.643879 1.148122 1.923879-442.942061-9.495273 5.818182v-18.602667l9.18497 16.120243 2.265212-144.151273z m335.856485 36.864l106.97697-0.046546 0.046545 427.597576h-0.06206V740.088242l-106.97697 0.046546-0.046545-125.052121h0.06206v-475.430788z m-154.360242 7.757576l81.144242-0.046546 0.03103 454.578424h-0.046545v125.176243l-81.144242 0.046545 0.015515-120.692363v-459.062303zM171.752727 748.032c-111.228121 0-125.486545-43.411394-125.486545-81.221818v-458.550303c32.597333 15.453091 73.029818 22.574545 125.486545 22.574545s92.904727-7.121455 125.486546-22.574545V666.8101819999999c0 37.810424-14.258424 81.221818-125.486546 81.221818zM372.689455 194.59103000000005l-34.676364-1.784242v155.151515h32.318061z"  horiz-adv-x="1024" />

    
    <glyph glyph-name="terminals" unicode="&#58911;" d="M896 751.113h-768c-18 0-36-12-36-36v-624c0-18 18-36 36-36h768c18 0 36 18 36 36v624c0 24-18 36-36 36zM452 337.11300000000006c-24-12-132-90-150-96-6-6-6-6-18 0l-12 12c-6 6 0 12 6 18 18 12 96 66 132 90-36 18-114 72-132 84l-6 6c6 6 12 18 18 24s6 6 12 0 138-90 150-102c18-12 12-24 0-36zM656 193.11300000000006c0-6 0-6-6-6h-180c-6 0-6 0-6 6v36c0 6 0 6 6 6h180c6 0 6 0 6-6v-36zM860 547.113h-696c-6 0-12 6-12 12v120c0 6 6 12 12 12h690c12 0 18-6 18-12v-120c0-6-6-12-12-12zM218 633.78c18 0 30-12 30-30s-12-30-30-30-30 12-30 30 12 30 30 30zM314 633.78c18 0 30-12 30-30s-12-30-24-30c-18 0-30 12-30 30-6 18 12 30 24 30zM416 633.78c18 0 30-12 30-30s-12-30-30-30-30 12-30 30c-6 18 12 30 30 30z"  horiz-adv-x="1024" />

    
    <glyph glyph-name="launchpad" unicode="&#59041;" d="M941.979 747.2280000000001c-2.428-78.961-19.472-154.859-47.926-228.39-34.044-87.982-83.842-165.41-153.644-229.387-5.665-5.188-7.439-10.751-6.69-18.068 2.415-23.668 4.351-47.384 6.788-71.047 5.684-55.195-13.646-100.36-58.144-132.417-47.724-34.382-97.376-66.115-146.635-98.317-31.041-20.295-69.194-1.876-72.651 34.939-3.968 42.284-7.088 84.652-10.031 127.019-1.47 21.202-0.898 21.389-21.423 24.094-54.513 7.191-97.171 33.053-126.462 80.019-15.069 24.164-22.54 50.893-25.161 78.963-0.786 8.421-4.177 10.573-12.117 11.013-44.098 2.438-88.193 5.048-132.235 8.375-36.627 2.769-55.21 41.394-35.575 73.638 13.801 22.658 28.477 44.782 42.719 67.168 15.34 24.108 30.578 48.281 45.956 72.361 28.141 44.066 68.712 67.87 120.642 68.287 29.736 0.238 59.533-5.006 89.251-8.206 5.633-0.608 9.619 0.164 13.506 4.51 69.006 77.128 154.402 129.185 251.086 164.016 54.649 19.686 110.883 32.538 168.581 38.49 29.077 2.999 58.369 4.102 87.422-1.283 15.831-2.933 16.64-3.583 19.078-19.045 2.435-15.455 4.372-30.988 3.665-46.732zM804.201 552.472c0.83 67.446-55.036 125.459-121.428 126.556-68.973 1.139-128.684-48.997-130.326-127.29-1.377-65.3 57.775-124.439 123.779-124.906 70.308-0.497 127.101 55.266 127.975 125.64z m-589.014-285.07c13.057-0.178 20.286-5.937 24.964-19.271 18.348-52.258 51.729-91.912 100.132-118.776 10.681-5.927 21.933-10.737 33.564-14.704 20.913-7.131 25.684-27.5 10.166-43.173-22.971-23.197-46.19-46.139-69.161-69.325-7.593-7.669-15.949-11.294-26.639-7.326-10.85 4.033-16.085 12.07-16.632 23.308-0.346 7.125-0.169 14.274-0.337 21.412-0.309 13.115-0.431 13.222-12.501 9.227-25.811-8.553-51.589-17.184-77.395-25.737-7.611-2.521-15.246-3.569-22.69 0.646-10.914 6.181-15.032 17.231-10.639 30.827 8.571 26.512 17.572 52.889 26.334 79.341 3.804 11.476 3.57 11.729-8.823 11.92-7.481 0.117-14.971-0.01-22.437 0.351-10.873 0.523-18.62 5.792-22.648 16.085-3.931 10.034-1.418 18.769 5.923 26.156 23.968 24.113 48.042 48.123 72.108 72.147 4.791 4.781 10.48 7.49 16.711 6.892z m0 0"  horiz-adv-x="1024" />

    
    <glyph glyph-name="small" unicode="&#58898;" d="M325.818182 477.090909c23.272727 0 46.545455 18.618182 46.545454 46.545455 0 23.272727-18.618182 46.545455-46.545454 46.545454-23.272727 0-46.545455-23.272727-46.545455-46.545454 0-27.927273 23.272727-46.545455 46.545455-46.545455z m372.363636 0c27.927273 0 46.545455 18.618182 46.545455 46.545455 0 23.272727-23.272727 46.545455-46.545455 46.545454-27.927273 0-46.545455-18.618182-46.545454-46.545454s18.618182-46.545455 46.545454-46.545455z m-186.181818 418.909091C228.072727 896 0 667.927273 0 384s228.072727-512 512-512 512 228.072727 512 512S795.927273 896 512 896z m0-977.454545C256-81.45454500000005 46.545455 128 46.545455 384S256 849.454545 512 849.454545s465.454545-209.454545 465.454545-465.454545-209.454545-465.454545-465.454545-465.454545z m279.272727 442.181818c0 13.963636-9.309091 23.272727-23.272727 23.272727s-23.272727-9.309091-23.272727-23.272727 9.309091-23.272727 23.272727-23.272728h-27.927273c-23.272727-107.054545-116.363636-186.181818-228.072727-186.181818-111.709091 0-204.8 79.127273-228.072727 186.181818h-27.927273c13.963636 0 23.272727 9.309091 23.272727 23.272728s-9.309091 23.272727-23.272727 23.272727-23.272727-9.309091-23.272727-23.272727 9.309091-23.272727 23.272727-23.272728h-18.618182c23.272727-130.327273 134.981818-232.727273 274.618182-232.727272 139.636364 0 251.345455 102.4 274.618182 232.727272h-18.618182c13.963636 0 23.272727 9.309091 23.272727 23.272728z"  horiz-adv-x="1024" />

    
    <glyph glyph-name="skill" unicode="&#58931;" d="M571 33.5c-20.3-9-36.6-13.9-47-16.5-49.5 14.1-189.7 70.9-291.5 278-5.7 11.7-19.8 16.5-31.4 10.7-11.7-5.7-16.5-19.8-10.8-31.4 93.5-190.4 218.5-264.1 289.7-292v-14.6h47l0.4 1.7c11.8 2.6 34 8.4 62.5 21.1 11.9 5.2 17.2 19.1 12 31-5.2 11.9-19 17.3-30.9 12zM863.4 692l0.2 0.2C858 697.3 743.9 797.8 527.1 797.8c-79.8 0-145.7-13.7-197.4-31.3-12.3-4.2-18.8-17.5-14.7-29.8 4.2-12.3 17.5-18.8 29.8-14.7 56.1 19.1 117.5 28.8 182.2 28.8 156.3 0 254.2-56.9 289.7-81.9v-41.6c0-13 10.5-23.5 23.5-23.5s23.5 10.5 23.5 23.5V692h-0.3zM840.3 429.8c-13 0-23.5-10.5-23.5-23.5v-47c0-13 10.5-23.5 23.5-23.5s23.5 10.5 23.5 23.5v47c0 12.9-10.5 23.5-23.5 23.5zM472.6 622.5l21.6 21.6c11.9 11.9 11.9 31.3 0 43.2-5.9 6-13.8 9-21.6 9-7.8 0-15.6-3-21.6-9l-93.5-93.6-129.3 129.6c-7.9 8-18.3 11.9-28.8 11.9-10.4 0-20.8-4-28.7-11.9-15.9-15.9-15.9-41.7 0-57.6l129.4-129.6-93.5-93.6c-11.9-11.9-11.9-31.3 0-43.2 6-6 13.8-8.9 21.6-8.9 7.8 0 15.6 3 21.6 8.9l21.6 21.6 377.1-377.7 215.2-12.9-13.9 214.5-377.2 377.7zM669.1 89L304.6 454.1l-10 10 38.7 38.8 24.3 24.3 33.2 33.3 38.7 38.7 9.9-9.9L804 224.10000000000002l9.3-143.7-144.2 8.6zM452.5 486c-6.1 6.1-14.1 9.2-22.2 9.2-8 0-16-3.1-22.1-9.2-12.2-12.2-12.2-32.1 0-44.3L685 164.89999999999998c6.1-6.1 14.1-9.2 22.2-9.2 8 0 16 3.1 22.1 9.2 12.2 12.2 12.2 32.1 0 44.3L452.5 486zM840.3 545.9c-13 0-23.5-8.5-23.5-18.9v-37.8c0-10.4 10.5-18.9 23.5-18.9s23.5 8.5 23.5 18.9V527c0 10.4-10.5 18.9-23.5 18.9z"  horiz-adv-x="1024" />

    
    <glyph glyph-name="vue" unicode="&#58902;" d="M512-5.393l-445.099 778.786h342.972l21.845-37.137 80.282-140.902 80.282 141.449 16.93 37.137h347.887l-445.099-779.332zM651.264 725.333l-139.264-220.092-139.264 220.092h-78.097l217.361-389.939 217.361 389.939h-78.097zM778.513 725.333l-266.513-469.129-266.513 469.129h-87.381l353.894-630.238 353.894 630.238h-87.381z"  horiz-adv-x="1024" />

    
    <glyph glyph-name="tree" unicode="&#59078;" d="M210.304 146.30399999999997h171.264a20.544 20.544 0 1 0 0-41.152H189.824a20.544 20.544 0 0 0-20.672 20.544V516.544h-20.48A20.672 20.672 0 0 0 128 537.216V619.328C128 630.784 137.28 640 148.672 640h82.112c11.392 0 20.672-9.28 20.672-20.672v-82.112a20.672 20.672 0 0 0-20.672-20.672h-20.48v-150.848h171.264a20.544 20.544 0 1 0 0-41.152H210.304v-178.24z m123.392 473.024c0 11.456 9.28 20.672 20.672 20.672h520.96c11.392 0 20.672-9.28 20.672-20.672v-82.112a20.672 20.672 0 0 0-20.672-20.672h-520.96a20.672 20.672 0 0 0-20.672 20.672V619.328z m150.848-233.152c0 11.456 9.216 20.672 20.736 20.672h370.048c11.392 0 20.672-9.28 20.672-20.672v-82.112a20.608 20.608 0 0 0-20.672-20.608H505.28a20.672 20.672 0 0 0-20.736 20.608V386.176z m0-219.392c0 11.392 9.216 20.672 20.736 20.672h370.048c11.392 0 20.672-9.28 20.672-20.672v-82.112a20.608 20.608 0 0 0-20.672-20.672H505.28a20.672 20.672 0 0 0-20.736 20.672v82.112z"  horiz-adv-x="1024" />

    
    <glyph glyph-name="day" unicode="&#58889;" d="M512 668.444444a284.444444 284.444444 0 1 1 284.444444-284.444444 285.202963 285.202963 0 0 1-284.444444 284.444444z m0-541.297777A256 256 0 1 0 768 384a256.758519 256.758519 0 0 0-256-256.758519zM171.140741 404.66963H68.551111a14.222222 14.222222 0 0 1 0-28.444445h102.58963a14.222222 14.222222 0 0 1 0 28.444445zM955.448889 404.66963H852.859259a14.222222 14.222222 0 0 1 0-28.444445h102.58963a14.222222 14.222222 0 0 1 0 28.444445zM504.699259 710.637037a14.222222 14.222222 0 0 1 14.222222 14.222222V827.448889a14.222222 14.222222 0 1 1-28.444444 0v-102.58963a14.222222 14.222222 0 0 1 14.222222-14.222222zM504.699259 57.362963000000036a14.222222 14.222222 0 0 1-14.222222-14.222222v-102.494815a14.222222 14.222222 0 0 1 28.444444 0V42.66666699999996a14.222222 14.222222 0 0 1-14.222222 14.696296zM753.019259 610.797037a14.222222 14.222222 0 0 1 10.050371 4.171852L835.602963 687.407407A14.222222 14.222222 0 0 1 815.407407 707.602963l-72.533333-72.533333a14.222222 14.222222 0 0 1 10.05037-24.272593zM260.93037 153.031111L188.397037 80.59259299999997A14.222222 14.222222 0 1 1 208.592593 60.397036999999955l72.533333 72.533333a14.222222 14.222222 0 0 1-20.100741 20.100741zM763.06963 153.031111a14.222222 14.222222 0 0 1-20.100741-20.100741L815.407407 60.397036999999955A14.222222 14.222222 0 0 1 835.602963 80.59259299999997zM260.93037 614.968889a14.222222 14.222222 0 0 1 20.100741 20.100741L208.592593 707.602963A14.222222 14.222222 0 0 1 188.397037 687.407407z"  horiz-adv-x="1024" />

    
    <glyph glyph-name="js" unicode="&#59039;" d="M978.2765037037036 278.17149629629625c-10.315851851851852 64.68645925925925-52.55016296296296 119.05706666666664-177.55401481481482 169.66542222222222-43.447940740740734 20.38897777777778-91.75039999999998 34.58844444444444-106.19259259259258 67.35644444444443-5.33997037037037 19.53943703703704-6.189511111111111 30.098014814814814-2.669985185185185 41.62749629629629 8.859496296296296 38.10797037037037 54.00651851851852 49.63745185185185 89.56586666666666 38.95751111111111 23.05896296296296-7.039051851851852 44.297481481481476-24.758044444444444 57.64740740740741-53.156977777777776 61.166933333333326 39.928414814814815 61.166933333333326 39.928414814814815 103.64397037037037 66.5069037037037-15.898548148148146 24.758044444444444-23.9085037037037 35.437985185185184-34.58844444444444 46.11792592592592-37.258429629629624 41.62749629629629-86.89588148148147 62.86601481481481-167.48088888888887 61.166933333333326l-41.62749629629629-5.33997037037037c-39.928414814814815-9.709037037037037-78.03638518518517-31.06891851851852-100.97398518518519-59.346488888888885-67.35644444444443-76.21594074074073-47.8170074074074-209.1083851851852 33.61754074074074-264.0858074074074 80.5850074074074-60.31739259259259 198.5498074074074-73.54595555555555 213.5988148148148-130.22245925925924 14.199466666666664-69.17688888888888-51.4578962962963-91.26494814814815-116.14435555555555-83.25499259259259-47.8170074074074 10.67994074074074-74.39549629629627 34.58844444444444-103.64397037037037 78.88592592592592L517.3399703703703 191.0328888888888c12.379022222222222-28.39893333333333 26.578488888888888-40.77795555555556 47.8170074074074-65.536 102.79442962962962-103.64397037037037 359.84118518518517-98.42536296296295 405.83774814814814 59.346488888888885 1.8204444444444445 5.33997037037037 14.199466666666664 41.62749629629629 4.49042962962963 97.45445925925927l2.7913481481481477-4.126340740740741zM447.4349037037037 706.2186666666666H314.7851851851851c0-114.44527407407405-0.48545185185185186-228.28373333333332-0.48545185185185186-342.9717333333333 0-72.81777777777778 3.7622518518518517-139.68877037037038-8.131318518518519-160.07774814814815-19.53943703703704-40.77795555555556-69.66234074074075-35.437985185185184-92.47857777777777-28.39893333333333-23.42305185185185 11.52948148148148-35.31662222222223 27.42802962962963-49.03063703703704 50.48699259259259-3.7622518518518517 6.189511111111111-6.553600000000001 11.52948148148148-7.5245037037037035 11.52948148148148l-108.01303703703704-66.38554074074075c17.96171851851852-37.258429629629624 44.297481481481476-69.17688888888888 78.27911111111109-89.56586666666666 50.48699259259259-30.098014814814814 118.45025185185183-39.928414814814815 189.44758518518518-23.9085037037037 46.239288888888886 13.349925925925925 86.1677037037037 40.77795555555556 106.92077037037036 83.25499259259259 30.098014814814814 54.977422222222216 23.78714074074074 122.33386666666665 23.54441481481481 197.5789037037037 0.7281777777777777 121.36296296296297 0 242.84728888888887 0 365.0597925925926l0.12136296296296296 3.398162962962963z"  horiz-adv-x="1024" />

    
    <glyph glyph-name="git" unicode="&#58972;" d="M1004.72704 429.6L557.62304 876.672a65.952 65.952 0 0 1-93.28 0L360.47104 772.8l78.176-78.176a96 96 0 0 0 128-128l127.968-127.968a96 96 0 1 0-45.248-45.248l-127.968 127.968a88.832 88.832 0 0 0-9.376-3.872v-266.976a96 96 0 1 0-64 0v266.976a96 96 0 0 0-54.624 131.904L315.22304 727.584 19.31904 431.712a65.952 65.952 0 0 1 0-93.28l447.136-447.072a65.952 65.952 0 0 1 93.28 0l444.992 444.992a65.952 65.952 0 0 1 0 93.28z"  horiz-adv-x="1024" />

    
    <glyph glyph-name="bootstrap" unicode="&#58882;" d="M853.333 885.96c42.667 0 82.991-16.731 113.443-47.184s47.185-70.776 47.185-113.443v-682.666c0-42.667-16.732-82.991-47.185-113.443s-70.776-47.185-113.443-47.185H170.667c-42.667 0-82.991 16.732-113.443 47.185S10.039 0 10.039 42.667V725.333c0 42.667 16.732 82.991 47.185 113.443S128 885.961 170.667 885.961h682.666m0 10.039H170.667C76.8 896 0 819.2 0 725.333v-682.666C0-51.2 76.8-128 170.667-128h682.666C947.2-128 1024-51.2 1024 42.667V725.333C1024 819.2 947.2 896 853.333 896z m-575.08-222.536h290.301c53.543 0 96.544-12.214 128.837-36.81s48.523-61.574 48.523-111.268c0-30.118-7.362-55.885-22.087-77.302-14.724-21.417-35.806-38.15-63.247-49.862v-1.673c36.81-7.864 64.753-25.265 83.66-52.204 18.908-27.106 28.445-60.904 28.445-101.73 0-23.425-4.183-45.344-12.55-65.59-8.365-20.413-21.416-37.982-39.32-52.706s-40.658-26.437-68.6-35.137-61.073-13.051-99.556-13.051H278.254V673.464zM382.83 423.32h170.666c25.098 0 46.013 7.028 62.746 21.417s25.098 34.803 25.098 61.574c0 30.118-7.53 51.367-22.589 63.582s-36.81 18.405-65.255 18.405H382.83V423.32z m0-261.856h184.889c31.79 0 56.554 8.199 73.955 24.763 17.569 16.398 26.437 39.823 26.437 69.94 0 29.616-8.7 52.204-26.437 68.267s-42.165 23.76-73.955 23.76h-184.89v-186.73z"  horiz-adv-x="1024" />

    
    <glyph glyph-name="webpack" unicode="&#58892;" d="M925.657 634.544l-2.079 3.543-2.014-1.181L514.601 871.868 92.096 627.935v-487.868l418.018-241.344 4.486-2.591 422.507 243.935V627.934l-11.45 6.61zM736.933 266.087V507.821l182.231 106.875v-453.898L736.933 266.087zM110.04 160.962V607.568l182.23-105.289v-234.442L110.04 160.962z m200.174 330.95l183.422-105.978L310.214 278.36V491.912z m9.203 15.406L514.6 620.0070000000001l190.56-110.018-193.723-113.615-192.02 110.944z m192.087-131.707l198.595-114.746-195.498-112.872-197.135 113.818 194.038 113.8z m17.8 10.439L718.99 497.297v-220.844L529.304 386.05z m374.458 240.416L722.963 520.4300000000001 514.601 640.727l-213.12-123.046-182.163 105.25L514.601 851.148l389.161-224.682z m-792.868-8.398l-0.854-1.479v0.985l0.854 0.494z m7.968-472.735l180.8 106.036L514.6 127.27599999999995l213.437 123.226 182.164-105.251-395.6-228.397-395.739 228.479z m395.739-262.15L80.881 133.591V634.409l433.72 250.409 406.92-234.936 6.058 3.552 6.253-10.66 14.491-8.367V133.59000000000003l-433.722-250.407zM141.16 145.409L514.6-70.197l373.177 215.452-159.742 92.297-213.434-123.225-214.894 124.067-158.547-92.985z m198.604 116.478l174.837-100.943 173.075 99.926-176.13 101.766-171.782-100.749z m408.383 10.673l159.801-92.33V595.117l-159.801-93.72V272.55999999999995zM121.254 588.136v-407.595l159.801 93.721V495.807l-159.801 92.329z m430.342-202.013l156.179-90.237V477.718l-156.179-91.595z m-230.167 86.356v-174.54l149.915 87.922-149.915 86.618z m20.412 34.835l169.553-97.964 171.467 100.563L514.6 607.057l-172.759-99.743zM141.743 622.928l159.741-92.296 213.117 123.043 208.318-120.271 158.544 92.985-366.862 211.81-372.858-215.271z"  horiz-adv-x="1024" />

    
    <glyph glyph-name="user" unicode="&#58979;" d="M882.036364-48.872727000000054L791.272727-16.290909000000056c125.672727 88.436364 209.454545 235.054545 209.454546 400.290909 0 269.963636-218.763636 488.727273-488.727273 488.727273S23.272727 653.963636 23.272727 384c0-165.236364 81.454545-311.854545 209.454546-400.290909l-90.763637-32.581818c-16.290909-4.654545-23.272727-20.945455-18.618181-34.909091l2.327272-4.654546c4.654545-13.963636 20.945455-20.945455 37.236364-16.290909l128 46.545455c16.290909 2.327273 27.927273 16.290909 27.927273 34.909091 0 13.963636-6.981818 23.272727-18.618182 30.254545-2.327273 2.327273-6.981818 2.327273-9.309091 4.654546-134.981818 79.127273-223.418182 230.4-209.454546 402.618181 16.290909 204.8 176.872727 372.363636 379.345455 395.636364 16.290909 2.327273 32.581818 2.327273 48.872727 2.327273 16.290909 0 32.581818 0 48.872728-2.327273 202.472727-23.272727 365.381818-190.836364 379.345454-395.636364 11.636364-169.890909-74.472727-321.163636-209.454545-402.618181-2.327273-2.327273-4.654545-2.327273-9.309091-4.654546-11.636364-6.981818-18.618182-16.290909-18.618182-30.254545 0-16.290909 11.636364-30.254545 27.927273-34.909091l128-46.545455c16.290909-4.654545 32.581818 2.327273 37.236363 16.290909l2.327273 4.654546c9.309091 13.963636 2.327273 30.254545-13.963636 34.909091zM372.363636 535.272727m-51.2 0a51.2 51.2 0 1 1 102.4 0 51.2 51.2 0 1 1-102.4 0ZM674.909091 535.272727m-51.2 0a51.2 51.2 0 1 1 102.4 0 51.2 51.2 0 1 1-102.4 0ZM751.709091 384c4.654545 11.636364-6.981818 23.272727-18.618182 23.272727s-23.272727-9.309091-23.272727-23.272727c0-48.872727-39.563636-88.436364-88.436364-88.436364-48.872727 0-86.109091 39.563636-86.109091 88.436364 0 11.636364-9.309091 23.272727-23.272727 23.272727-11.636364 0-23.272727-9.309091-23.272727-23.272727 0-48.872727-39.563636-88.436364-88.436364-88.436364-48.872727 0-88.436364 39.563636-88.436364 88.436364 0 11.636364-9.309091 23.272727-23.272727 23.272727s-23.272727-9.309091-23.272727-23.272727c0-74.472727 60.509091-132.654545 132.654545-132.654545 46.545455 0 86.109091 23.272727 109.381819 58.181818 23.272727-34.909091 65.163636-58.181818 111.70909-58.181818 74.472727 0 132.654545 60.509091 132.654546 132.654545z"  horiz-adv-x="1024" />

    
    <glyph glyph-name="user-active" unicode="&#58980;" d="M882.036364-48.872727000000054L791.272727-16.290909000000056c125.672727 88.436364 209.454545 235.054545 209.454546 400.290909 0 269.963636-218.763636 488.727273-488.727273 488.727273S23.272727 653.963636 23.272727 384c0-165.236364 81.454545-311.854545 209.454546-400.290909l-90.763637-32.581818c-16.290909-4.654545-23.272727-20.945455-18.618181-34.909091l2.327272-4.654546c4.654545-13.963636 20.945455-20.945455 37.236364-16.290909h700.509091c16.290909-4.654545 32.581818 2.327273 37.236363 16.290909l2.327273 4.654546c2.327273 13.963636-4.654545 30.254545-20.945454 34.909091zM674.909091 588.8c27.927273 0 51.2-23.272727 51.2-51.2s-23.272727-51.2-51.2-51.2-51.2 23.272727-51.2 51.2 23.272727 51.2 51.2 51.2z m-302.545455 0c27.927273 0 51.2-23.272727 51.2-51.2s-23.272727-51.2-51.2-51.2-51.2 23.272727-51.2 51.2 23.272727 51.2 51.2 51.2z m251.345455-337.454545c-46.545455 0-86.109091 23.272727-111.709091 58.181818-23.272727-34.909091-65.163636-58.181818-109.381818-58.181818-74.472727 0-132.654545 60.509091-132.654546 132.654545 0 11.636364 9.309091 23.272727 23.272728 23.272727s23.272727-9.309091 23.272727-23.272727c0-48.872727 39.563636-88.436364 88.436364-88.436364S488.727273 335.12727299999995 488.727273 384c0 11.636364 9.309091 23.272727 23.272727 23.272727 11.636364 0 23.272727-9.309091 23.272727-23.272727 0-48.872727 39.563636-88.436364 88.436364-88.436364s88.436364 39.563636 88.436364 88.436364c0 11.636364 9.309091 23.272727 23.272727 23.272727s23.272727-9.309091 23.272727-23.272727c-2.327273-74.472727-62.836364-132.654545-134.981818-132.654545z"  horiz-adv-x="1024" />

    
    <glyph glyph-name="share" unicode="&#58983;" d="M928 416c-16 0-32-16-32-32 0-214.4-169.6-384-384-384-211.2 0-384 169.6-384 384C128 595.2 300.8 768 512 768c16 0 32 16 32 32s-16 32-32 32C262.4 832 64 630.4 64 384s201.6-448 448-448 448 201.6 448 448c0 16-16 32-32 32zM697.6 784c-16 0-32-12.8-32-32 0-16 12.8-28.8 32-28.8h112l-185.6-185.6c-32 22.4-70.4 38.4-112 38.4-105.6 0-192-86.4-192-192s86.4-192 192-192 192 86.4 192 192c0 41.6-12.8 80-38.4 112l185.6 185.6v-112c0-16 12.8-28.8 32-28.8 16 0 32 12.8 32 28.8V784h-217.6zM512 256c-70.4 0-128 57.6-128 128s57.6 128 128 128 128-57.6 128-128-57.6-128-128-128z"  horiz-adv-x="1024" />

    
    <glyph glyph-name="download" unicode="&#58984;" d="M489.6 140.79999999999995c12.8-12.8 32-12.8 44.8 0l256 240c28.8 28.8-16 73.6-44.8 44.8l-201.6-192V748.8c0 41.6-64 41.6-64 0v-515.2l-201.6 188.8c-28.8 28.8-76.8-16-44.8-44.8l256-236.8zM928 144c-19.2 0-32-12.8-32-32 0-48-41.6-92.8-86.4-92.8H214.4c-48 0-86.4 41.6-86.4 92.8 0 19.2-12.8 32-32 32s-32-12.8-32-32c0-86.4 67.2-156.8 150.4-156.8h595.2c80 0 150.4 70.4 150.4 156.8 0 19.2-12.8 32-32 32z"  horiz-adv-x="1024" />

    
    <glyph glyph-name="refresh" unicode="&#59000;" d="M288 240c-19.2 0-32-12.8-32-32V96c-83.2 70.4-131.2 176-131.2 288C124.8 598.4 297.6 771.2 512 771.2c38.4 0 76.8-6.4 115.2-19.2 16-6.4 32 3.2 38.4 19.2 6.4 16-3.2 32-19.2 38.4-44.8 12.8-89.6 19.2-134.4 19.2C265.6 828.8 67.2 630.4 67.2 384c0-121.6 51.2-236.8 137.6-320H112c-19.2 0-32-12.8-32-32s12.8-32 32-32h163.2c9.6 0 22.4 0 32 12.8 12.8 12.8 12.8 25.6 12.8 35.2v160c0 19.2-12.8 32-32 32zM822.4 704h89.6c19.2 0 32 12.8 32 32s-12.8 32-32 32h-160c-12.8 0-25.6 0-38.4-12.8-9.6-9.6-9.6-22.4-9.6-35.2v-160c0-19.2 12.8-32 32-32s32 12.8 32 32V672c83.2-73.6 131.2-176 131.2-288 0-214.4-172.8-387.2-387.2-387.2-41.6 0-80 6.4-118.4 19.2-16 3.2-32-3.2-38.4-19.2-6.4-16 3.2-32 19.2-38.4 44.8-12.8 89.6-19.2 137.6-19.2 246.4 0 444.8 198.4 444.8 444.8 0 121.6-48 236.8-134.4 320z"  horiz-adv-x="1024" />

    
    <glyph glyph-name="dislike" unicode="&#59015;" d="M614.4 183.85454500000003l-88.436364 46.545455c-6.981818 4.654545-18.618182 4.654545-25.6 0l-90.763636-44.218182c-11.636364-6.981818-16.290909-20.945455-11.636364-32.581818 6.981818-11.636364 20.945455-16.290909 34.909091-9.309091l81.454546 39.563636 79.127272-41.890909c11.636364-6.981818 27.927273-2.327273 32.581819 9.309091 6.981818 11.636364 0 25.6-11.636364 32.581818zM439.854545 428.218182c0 6.981818-2.327273 11.636364-6.981818 16.290909l-2.327272 2.327273-109.381819 88.436363c-9.309091 6.981818-25.6 6.981818-32.581818-2.327272-9.309091-9.309091-6.981818-23.272727 2.327273-32.581819l88.436364-72.145454-88.436364-72.145455c-9.309091-6.981818-11.636364-23.272727-2.327273-32.581818 9.309091-9.309091 23.272727-9.309091 32.581818-2.327273l109.381819 88.436364c4.654545 4.654545 9.309091 11.636364 9.30909 18.618182zM512 826.181818C267.636364 826.181818 69.818182 628.363636 69.818182 384s197.818182-442.181818 442.181818-442.181818 442.181818 197.818182 442.181818 442.181818S756.363636 826.181818 512 826.181818z m0-837.818182c-218.763636 0-395.636364 176.872727-395.636364 395.636364S293.236364 779.636364 512 779.636364s395.636364-176.872727 395.636364-395.636364-176.872727-395.636364-395.636364-395.636364zM735.418182 532.945455c-9.309091 9.309091-23.272727 9.309091-32.581818 2.327272l-107.054546-88.436363c-4.654545-4.654545-6.981818-9.309091-6.981818-16.290909s2.327273-13.963636 6.981818-16.29091l107.054546-88.436363c9.309091-6.981818 25.6-6.981818 32.581818 2.327273 9.309091 9.309091 6.981818 23.272727-2.327273 32.581818l-88.436364 69.818182 88.436364 72.145454c9.309091 6.981818 11.636364 20.945455 2.327273 30.254546z"  horiz-adv-x="1024" />

    
    <glyph glyph-name="dislike-active" unicode="&#59016;" d="M512 826.181818C267.636364 826.181818 69.818182 628.363636 69.818182 384s197.818182-442.181818 442.181818-442.181818 442.181818 197.818182 442.181818 442.181818S756.363636 826.181818 512 826.181818z m-223.418182-502.690909c-9.309091 9.309091-6.981818 25.6 2.327273 32.581818l88.436364 72.145455-88.436364 72.145454c-9.309091 9.309091-11.636364 23.272727-2.327273 32.581819 6.981818 9.309091 23.272727 9.309091 32.581818 2.327272l109.381819-88.436363 2.327272-2.327273c4.654545-4.654545 6.981818-9.309091 6.981818-16.290909 0-6.981818-2.327273-13.963636-9.30909-18.618182l-109.381819-88.436364c-9.309091-6.981818-23.272727-6.981818-32.581818 2.327273zM626.036364 151.27272700000003c-4.654545-11.636364-20.945455-16.290909-32.581819-9.309091l-79.127272 41.890909-81.454546-39.563636c-13.963636-6.981818-27.927273-2.327273-34.909091 9.309091-4.654545 11.636364 0 25.6 11.636364 32.581818l90.763636 44.218182c6.981818 4.654545 18.618182 4.654545 25.6 0l88.436364-46.545455c11.636364-6.981818 18.618182-20.945455 11.636364-32.581818z m107.054545 209.454546c9.309091-9.309091 11.636364-23.272727 2.327273-32.581818-6.981818-9.309091-23.272727-9.309091-32.581818-2.327273l-107.054546 88.436363c-4.654545 4.654545-6.981818 9.309091-6.981818 16.29091 0 6.981818 2.327273 11.636364 6.981818 16.290909l107.054546 88.436363c9.309091 6.981818 23.272727 6.981818 32.581818-2.327272 9.309091-9.309091 6.981818-23.272727-2.327273-30.254546L644.654545 430.545455l88.436364-69.818182z"  horiz-adv-x="1024" />

    
    <glyph glyph-name="talk-active" unicode="&#59062;" d="M772.654545 288.581818c20.945455 0 39.563636 13.963636 44.218182 34.909091l27.927273 104.727273c6.981818 25.6-9.309091 51.2-32.581818 55.854545-25.6 6.981818-51.2-9.309091-55.854546-32.581818l-27.927272-104.727273c-6.981818-25.6 9.309091-51.2 32.581818-55.854545 4.654545-2.327273 6.981818-2.327273 11.636363-2.327273z m-195.490909-2.327273c20.945455 0 39.563636 13.963636 44.218182 34.909091l27.927273 104.727273c6.981818 25.6-9.309091 51.2-32.581818 55.854546-25.6 6.981818-51.2-9.309091-55.854546-32.581819l-27.927272-104.727272c-6.981818-25.6 9.309091-51.2 32.581818-55.854546 4.654545-2.327273 6.981818-2.327273 11.636363-2.327273zM118.690909 2.327272999999991c-9.309091 6.981818-13.963636 18.618182-11.636364 27.927272 2.327273 11.636364 11.636364 20.945455 20.945455 23.272728 48.872727 11.636364 65.163636 16.290909 81.454545 30.254545-74.472727 53.527273-162.909091 165.236364-162.90909 300.218182C46.545455 635.345455 260.654545 849.454545 516.654545 849.454545 770.327273 849.454545 977.454545 642.327273 977.454545 386.327273c0-253.672727-169.890909-435.2-430.545454-463.127273-25.6-2.327273-48.872727-4.654545-74.472727-4.654545-141.963636 0-286.254545 39.563636-353.745455 83.781818z"  horiz-adv-x="1024" />

    
    <glyph glyph-name="talk" unicode="&#59063;" d="M772.654545 288.581818c20.945455 0 39.563636 13.963636 44.218182 34.909091l27.927273 104.727273c6.981818 25.6-9.309091 51.2-32.581818 55.854545-25.6 6.981818-51.2-9.309091-55.854546-32.581818l-27.927272-104.727273c-6.981818-25.6 9.309091-51.2 32.581818-55.854545 4.654545-2.327273 6.981818-2.327273 11.636363-2.327273z m-195.490909-2.327273c20.945455 0 39.563636 13.963636 44.218182 34.909091l27.927273 104.727273c6.981818 25.6-9.309091 51.2-32.581818 55.854546-25.6 6.981818-51.2-9.309091-55.854546-32.581819l-27.927272-104.727272c-6.981818-25.6 9.309091-51.2 32.581818-55.854546 4.654545-2.327273 6.981818-2.327273 11.636363-2.327273zM118.690909 2.327272999999991c-9.309091 6.981818-13.963636 18.618182-11.636364 27.927272 2.327273 11.636364 11.636364 20.945455 20.945455 23.272728 48.872727 11.636364 65.163636 16.290909 81.454545 30.254545-74.472727 53.527273-162.909091 165.236364-162.90909 300.218182C46.545455 635.345455 260.654545 849.454545 516.654545 849.454545 770.327273 849.454545 977.454545 642.327273 977.454545 386.327273c0-253.672727-169.890909-435.2-430.545454-463.127273-25.6-2.327273-48.872727-4.654545-74.472727-4.654545-141.963636 0-286.254545 39.563636-353.745455 83.781818z m88.436364 9.309091c83.781818-30.254545 214.109091-55.854545 335.127272-41.890909 239.709091 27.927273 388.654545 186.181818 388.654546 418.90909C930.909091 616.727273 744.727273 802.909091 516.654545 802.909091 286.254545 802.909091 93.090909 612.072727 93.090909 384c0-128 100.072727-244.363636 172.218182-276.945455 9.309091-4.654545 16.290909-11.636364 16.290909-23.272727 2.327273-9.309091-2.327273-18.618182-9.309091-25.6l-6.981818-6.981818c-20.945455-18.618182-34.909091-30.254545-58.181818-39.563636"  horiz-adv-x="1024" />

    
    <glyph glyph-name="centos" unicode="&#59013;" d="M327.424 653.12s38.4-38.4 83.2-89.6c64-64 89.6-83.2 89.6-83.2 6.4 0 6.4 0 6.4 121.6s0 121.6-6.4 121.6H391.424l-25.6-32c-25.6-19.2-38.4-38.4-38.4-38.4z m0-236.8c108.8 0 121.6 0 128 6.4 0 0-25.6 25.6-83.2 89.6-57.6 44.8-96 83.2-102.4 83.2l-38.4-38.4-38.4-32V416.32h134.4zM429.824 749.12c6.4-6.4 19.2-6.4 51.2-6.4h44.8v-294.4l6.4-6.4c6.4-6.4 12.8-6.4 12.8-6.4l12.8 12.8 12.8 12.8v281.6h44.8c44.8 0 44.8 0 44.8 6.4 0 0-25.6 32-57.6 64-38.4 44.8-51.2 57.6-57.6 57.6-6.4 0-121.6-115.2-115.2-121.6-6.4 0 0 0 0 0zM589.824 729.92s0-6.4 0 0c0-6.4 0-6.4 0 0V486.72h6.4s38.4 38.4 89.6 83.2c57.6 57.6 83.2 83.2 83.2 89.6 0 6.4-12.8 19.2-38.4 38.4l-38.4 32h-102.4z m-115.2-371.2l6.4 6.4c12.8 12.8 12.8 19.2 0 25.6l-6.4 6.4h-294.4v51.2 51.2l-6.4 6.4c-6.4-6.4-121.6-121.6-121.6-128 0-6.4 19.2-25.6 57.6-64l57.6-57.6c12.8 6.4 12.8 12.8 12.8 57.6v44.8h294.4zM788.224 653.12l-96-102.4-102.4-102.4v-32h25.6l102.4 102.4 102.4 102.4s19.2-12.8 32-32c25.6-25.6 32-32 38.4-32 6.4 0 6.4 0 6.4 83.2v89.6s-19.2 6.4-89.6 0c-83.2 0-83.2 0-83.2-6.4s6.4-12.8 32-38.4l32-32zM826.624 595.52c-6.4 0-179.2-166.4-179.2-172.8v-6.4h243.2v102.4l-38.4 38.4c-12.8 25.6-25.6 38.4-25.6 38.4z m-627.2-38.4s12.8 6.4 38.4 32c19.2 19.2 32 32 38.4 32 0 0 51.2-44.8 108.8-102.4l96-96 6.4-6.4h6.4c12.8 0 19.2 6.4 19.2 19.2v12.8l-108.8 102.4-102.4 102.4s12.8 19.2 32 32c32 32 38.4 38.4 32 38.4 0 0-19.2 6.4-83.2 6.4h-83.2c-6.4 0-6.4-6.4-6.4-83.2s0-89.6 6.4-89.6z m697.6-217.6h-249.6v-6.4c0-6.4 19.2-25.6 89.6-89.6 44.8-44.8 89.6-83.2 89.6-83.2l38.4 38.4 38.4 38.4v51.2c0 38.4 0 51.2-6.4 51.2z m-665.6-140.8c25.6-25.6 38.4-38.4 44.8-38.4 6.4 0 179.2 166.4 172.8 172.8l-6.4 6.4h-243.2v-108.8l32-32zM1044.224 377.92s-25.6 32-57.6 57.6c-38.4 38.4-57.6 57.6-64 57.6-6.4 0-6.4-6.4-6.4-51.2v-44.8H621.824l-6.4-6.4c-6.4-6.4-6.4-6.4-6.4-12.8s0-6.4 6.4-12.8l6.4-6.4h300.8v-102.4h6.4c6.4 0 115.2 108.8 115.2 115.2v6.4z m-140.8-179.2c-6.4 0-6.4 0 0 0-6.4 6.4-25.6-12.8-44.8-32l-32-32s-6.4 0-6.4 6.4l-96 96c-102.4 102.4-108.8 102.4-121.6 102.4-19.2 0-19.2 0-19.2-19.2v-12.8l102.4-102.4 102.4-102.4-32-32c-32-32-38.4-38.4-32-44.8h83.2c70.4 0 76.8 0 83.2 6.4 6.4 6.4 6.4 12.8 6.4 83.2 6.4 44.8 6.4 76.8 6.4 83.2z m-396.8-166.4s0 6.4 0 0v19.2 102.4c0 108.8 0 121.6-6.4 121.6 0 0-32-25.6-89.6-83.2l-89.6-89.6c0-6.4 6.4-12.8 38.4-44.8l38.4-38.4h51.2c38.4 6.4 57.6 6.4 57.6 12.8zM308.224 102.72l102.4 102.4 102.4 102.4v12.8 12.8l-12.8 6.4H481.024l-102.4-102.4-102.4-102.4-32 32c-25.6 25.6-32 32-38.4 32h-12.8v-172.8h89.6c83.2 0 83.2 0 83.2 6.4s-6.4 12.8-32 38.4l-25.6 32z m307.2-89.6h-44.8v140.8V301.12c-6.4 6.4-6.4 12.8-12.8 12.8-6.4 12.8-12.8 6.4-25.6 0l-6.4-12.8v-288h-96-6.4s25.6-25.6 57.6-64c32-32 64-57.6 64-57.6s32 25.6 64 57.6c44.8 44.8 57.6 57.6 57.6 64v6.4l-51.2-6.4zM769.024 102.72c0 6.4-166.4 172.8-172.8 172.8h-6.4v-121.6c0-115.2 0-121.6 6.4-128 6.4-6.4 89.6-6.4 102.4 0 12.8 12.8 70.4 70.4 70.4 76.8z"  horiz-adv-x="1088" />

    


  </font>
</defs>
</svg>
